# This file uses meters as units for non-parametric coordinates.

mtllib PuertaEstufa.mtl
g default
v 58.653195 -0.747268 0.427569
v -61.120446 -0.747268 0.427569
v -66.557614 110.516370 -8.264478
v 64.090394 110.516370 -8.264478
v 58.653195 -1.078522 -4.499128
v -61.120446 -1.078522 -4.499128
v -66.557614 110.185141 -13.191175
v 64.090394 110.185141 -13.191175
v 46.186221 5.627552 -4.499128
v -48.653456 5.627552 -4.499128
v -52.958738 89.790634 -13.191175
v 50.491518 89.790634 -13.191175
v 46.186221 5.627552 -2.380872
v -48.653456 5.627552 -2.380872
v -52.958738 89.790634 -11.072920
v 50.491518 89.790634 -11.072920
v -56.345753 105.420307 -13.191175
v 53.878534 105.420307 -13.191175
v 52.359904 101.809465 -13.191175
v -54.827107 101.809465 -13.191175
v -56.345753 110.103224 -32.066114
v 53.878534 110.103224 -32.066114
v 52.359904 106.492381 -32.066114
v -54.827107 106.492381 -32.066114
v -50.005029 105.219217 -13.951368
v 47.537810 105.219217 -13.951368
v 47.537810 108.416874 -27.091047
v -50.005029 108.416874 -27.091047
v -48.661103 101.608374 -13.951368
v 46.193900 101.608374 -13.951368
v -48.661103 104.806031 -27.091047
v 46.193900 104.806031 -27.091047
vt 0.147320 0.290908
vt 0.134639 0.447672
vt 0.127451 0.447206
vt 0.140132 0.290441
vt 0.147311 0.291022
vt 0.134630 0.447786
vt 0.127460 0.447091
vt 0.140141 0.290327
vt 0.097524 0.287466
vt 0.113521 0.437053
vt 0.109623 0.437053
vt 0.093626 0.287466
vt 0.097480 0.287054
vt 0.113477 0.436641
vt 0.109667 0.437465
vt 0.093670 0.287878
vt 0.125020 0.107770
vt 0.111004 0.107770
vt 0.129181 0.031906
vt 0.143197 0.031906
vt 0.111004 0.031906
vt 0.125020 0.031906
vt 0.143197 0.107770
vt 0.129181 0.107770
vt 0.127903 0.033748
vt 0.140314 0.105927
vt 0.126299 0.105927
vt 0.113887 0.033748
vt 0.140314 0.033748
vt 0.127903 0.105927
vt 0.113887 0.105927
vt 0.126299 0.033748
vt 0.024303 0.435210
vt 0.355783 0.435098
vt 0.355788 0.449217
vt 0.024308 0.449328
vt 0.370836 0.449212
vt 0.009260 0.449333
vt 0.009255 0.435215
vt 0.370831 0.435093
vt 0.057830 0.469328
vt 0.320304 0.469239
vt 0.320307 0.475310
vt 0.057832 0.475398
vt 0.332222 0.475305
vt 0.045917 0.475402
vt 0.045915 0.469332
vt 0.332219 0.469235
vt 0.245229 0.158198
vt 0.008818 0.158206
vt 0.022418 0.156518
vt 0.231629 0.156510
vt 0.008817 0.116286
vt 0.022417 0.127335
vt 0.245227 0.116278
vt 0.231628 0.127328
vt 0.011687 0.116302
vt 0.241583 0.116294
vt 0.228358 0.117983
vt 0.024912 0.117990
vt 0.241584 0.158214
vt 0.228359 0.147165
vt 0.011688 0.158222
vt 0.024913 0.147173
vt 0.185922 0.043550
vt 0.185922 0.208460
vt 0.039576 0.215946
vt 0.039576 0.036063
vt 0.244203 0.262814
vt 0.476295 0.262809
vt 0.486837 0.478410
vt 0.233673 0.478416
vt 0.472465 0.478681
vt 0.240373 0.478687
vt 0.264531 0.465692
vt 0.448307 0.465687
vt 0.229832 0.263086
vt 0.256184 0.302605
vt 0.482996 0.263079
vt 0.456645 0.302600
vt 0.249620 0.272318
vt 0.252563 0.279315
vt 0.460265 0.279310
vt 0.463208 0.272313
vt 0.245035 0.141118
vt 0.008624 0.141127
vt 0.011881 0.133382
vt 0.241777 0.133374
vt 0.022223 0.133382
vt 0.231435 0.133374
vt 0.228553 0.141119
vt 0.025106 0.141126
vt 0.324048 0.477270
vt 0.054093 0.477361
vt 0.057809 0.467366
vt 0.320325 0.467278
vn 0.000000 -0.102730 -0.994709
vn 0.000000 -0.102730 -0.994709
vn 0.000000 -0.102730 -0.994709
vn 0.000000 -0.102730 -0.994709
vn 0.000000 -0.997747 0.067085
vn 0.000000 -0.997747 0.067085
vn 0.000000 -0.997747 0.067085
vn 0.000000 -0.997747 0.067085
vn -0.998815 -0.048555 0.003265
vn -0.998815 -0.048555 0.003265
vn -0.998815 -0.048555 0.003265
vn -0.998815 -0.048555 0.003265
vn 0.000000 0.997748 -0.067081
vn 0.000000 0.997748 -0.067081
vn 0.000000 0.997748 -0.067081
vn 0.000000 0.997748 -0.067081
vn 0.998815 -0.048555 0.003265
vn 0.998815 -0.048555 0.003265
vn 0.998815 -0.048555 0.003265
vn 0.998815 -0.048555 0.003265
vn 0.000000 0.077884 0.996962
vn 0.000000 0.077884 0.996962
vn 0.000000 0.077884 0.996962
vn 0.000000 0.077884 0.996962
vn 0.000000 0.000000 -1.000000
vn 0.000000 0.000000 -1.000000
vn 0.000000 0.000000 -1.000000
vn 0.000000 0.000000 -1.000000
vn -0.047719 -0.090864 -0.994719
vn -0.047719 -0.090864 -0.994719
vn -0.047719 -0.090864 -0.994719
vn -0.047719 -0.090864 -0.994719
vn 0.000000 0.000000 -1.000000
vn 0.000000 0.000000 -1.000000
vn 0.000000 0.000000 -1.000000
vn 0.000000 0.000000 -1.000000
vn 0.047718 -0.090863 -0.994719
vn 0.047718 -0.090863 -0.994720
vn 0.047718 -0.090863 -0.994719
vn 0.047718 -0.090863 -0.994719
vn 0.000000 1.000000 0.000000
vn 0.000000 1.000000 0.000000
vn 0.000000 1.000000 0.000000
vn 0.000000 1.000000 0.000000
vn 0.998694 0.051088 0.000000
vn 0.998694 0.051088 0.000000
vn 0.998694 0.051088 0.000000
vn 0.998694 0.051088 0.000000
vn 0.000000 -1.000000 0.000000
vn 0.000000 -1.000000 0.000000
vn 0.000000 -1.000000 0.000000
vn 0.000000 -1.000000 0.000000
vn -0.998694 0.051087 0.000000
vn -0.998694 0.051087 0.000000
vn -0.998694 0.051087 0.000000
vn -0.998694 0.051087 0.000000
vn 0.000000 0.000000 -1.000000
vn 0.000000 0.000000 -1.000000
vn 0.000000 0.000000 -1.000000
vn 0.000000 0.000000 -1.000000
vn -0.000003 0.000000 -1.000000
vn -0.000003 0.000000 -1.000000
vn -0.000003 0.000000 -1.000000
vn -0.000003 0.000000 -1.000000
vn 0.000000 0.000000 -1.000000
vn 0.000000 0.000000 -1.000000
vn 0.000000 0.000000 -1.000000
vn 0.000000 0.000000 -1.000000
vn 0.000000 0.000000 -1.000000
vn 0.000000 0.000000 -1.000000
vn 0.000000 0.000000 -1.000000
vn 0.000000 0.000000 -1.000000
vn 0.917558 -0.385902 -0.095743
vn 0.917558 -0.385902 -0.095743
vn 0.917558 -0.385902 -0.095743
vn 0.917558 -0.385902 -0.095743
vn -0.917557 -0.385905 -0.095744
vn -0.917557 -0.385905 -0.095744
vn -0.917557 -0.385905 -0.095744
vn -0.917557 -0.385905 -0.095744
vn 0.000000 0.966748 -0.255732
vn 0.000000 0.966748 -0.255732
vn 0.000000 0.966748 -0.255732
vn 0.000000 0.966748 -0.255732
vn -0.064941 0.968965 0.238516
vn -0.064941 0.968965 0.238516
vn -0.064941 0.968965 0.238516
vn -0.064941 0.968965 0.238516
vn 0.000000 0.947073 0.321020
vn 0.000000 0.947073 0.321020
vn 0.000000 0.947072 0.321020
vn 0.000000 0.947072 0.321020
vn 0.064940 0.968965 0.238516
vn 0.064940 0.968965 0.238516
vn 0.064940 0.968965 0.238516
vn 0.064940 0.968965 0.238516
vn 0.000000 -0.966744 0.255744
vn 0.000000 -0.966744 0.255744
vn 0.000000 -0.966744 0.255744
vn 0.000000 -0.966744 0.255744
vn -0.066773 -0.968847 -0.238487
vn -0.066773 -0.968847 -0.238487
vn -0.066773 -0.968847 -0.238487
vn -0.066773 -0.968847 -0.238487
vn 0.000000 -0.947073 -0.321020
vn 0.000000 -0.947073 -0.321020
vn 0.000000 -0.947073 -0.321020
vn 0.000000 -0.947073 -0.321020
vn 0.066772 -0.968848 -0.238487
vn 0.066772 -0.968848 -0.238487
vn 0.066772 -0.968848 -0.238487
vn 0.066772 -0.968848 -0.238487
vn -0.933832 0.347568 0.084582
vn -0.933832 0.347568 0.084582
vn -0.933832 0.347568 0.084582
vn -0.933832 0.347568 0.084582
vn 0.000000 0.000000 1.000000
vn 0.000000 0.000000 1.000000
vn 0.000000 0.000000 1.000000
vn 0.000000 0.000000 1.000000
vn 0.933834 0.347563 0.084583
vn 0.933834 0.347563 0.084583
vn 0.933834 0.347563 0.084583
vn 0.933834 0.347563 0.084583
vn 0.000000 0.000000 -1.000000
vn 0.000000 0.000000 -1.000000
vn 0.000000 0.000000 -1.000000
vn 0.000000 0.000000 -1.000000
s off
g EstufaPuerta Estufa
usemtl Muebles2SG
f 13/65/1 14/66/2 15/67/3 16/68/4
f 1/33/5 2/34/6 6/35/7 5/36/8
f 2/1/9 3/2/10 7/3/11 6/4/12
f 3/37/13 4/38/14 8/39/15 7/40/16
f 4/5/17 1/6/18 5/7/19 8/8/20
f 2/69/21 1/70/22 4/71/23 3/72/24
f 5/73/25 6/74/26 10/75/27 9/76/28
f 6/74/29 7/77/30 11/78/31 10/75/32
f 21/85/33 22/86/34 23/87/35 24/88/36
f 8/79/37 5/73/38 9/76/39 12/80/40
f 9/41/41 10/42/42 14/43/43 13/44/44
f 10/9/45 11/10/46 15/11/47 14/12/48
f 11/45/49 12/46/50 16/47/51 15/48/52
f 12/13/53 9/14/54 13/15/55 16/16/56
f 7/77/57 8/79/58 18/84/59 17/81/60
f 8/79/61 12/80/62 19/83/63 18/84/64
f 12/80/65 11/78/66 20/82/67 19/83/68
f 11/78/69 7/77/70 17/81/71 20/82/72
f 18/17/73 19/18/74 23/19/75 22/20/76
f 20/21/77 17/22/78 21/23/79 24/24/80
f 17/49/81 18/50/82 26/51/83 25/52/84
f 18/50/85 22/53/86 27/54/87 26/51/88
f 22/53/89 21/55/90 28/56/91 27/54/92
f 21/55/93 17/49/94 25/52/95 28/56/96
f 19/57/97 20/58/98 29/59/99 30/60/100
f 20/58/101 24/61/102 31/62/103 29/59/104
f 24/61/105 23/63/106 32/64/107 31/62/108
f 23/63/109 19/57/110 30/60/111 32/64/112
f 26/25/113 27/26/114 32/27/115 30/28/116
f 27/89/117 28/90/118 31/91/119 32/92/120
f 28/29/121 25/30/122 29/31/123 31/32/124
f 25/93/125 26/94/126 30/95/127 29/96/128
